<mxfile host="app.diagrams.net" agent="Mozilla/5.0 (Windows NT 10.0; Win64; x64) AppleWebKit/537.36 (KHTML, like Gecko) Chrome/128.0.0.0 Safari/537.36 OPR/114.0.0.0" version="24.8.4">
  <diagram name="Сторінка-1" id="dCCp6RB5GIZaPyZH4vvL">
    <mxGraphModel dx="988" dy="509" grid="1" gridSize="10" guides="1" tooltips="1" connect="1" arrows="1" fold="1" page="1" pageScale="1" pageWidth="827" pageHeight="1169" math="0" shadow="0">
      <root>
        <mxCell id="0" />
        <mxCell id="1" parent="0" />
        <mxCell id="LBWheHYTFPjmtkvQ77Nh-1" value="" style="verticalAlign=top;align=left;spacingTop=8;spacingLeft=2;spacingRight=12;shape=cube;size=10;direction=south;fontStyle=4;html=1;whiteSpace=wrap;fillColor=none;" parent="1" vertex="1">
          <mxGeometry x="20" y="150" width="490" height="210" as="geometry" />
        </mxCell>
        <mxCell id="LBWheHYTFPjmtkvQ77Nh-6" value="" style="rounded=0;orthogonalLoop=1;jettySize=auto;html=1;endArrow=halfCircle;endFill=0;endSize=6;strokeWidth=1;sketch=0;" parent="1" edge="1">
          <mxGeometry relative="1" as="geometry">
            <mxPoint x="360" y="234.71" as="sourcePoint" />
            <mxPoint x="305" y="235" as="targetPoint" />
            <Array as="points">
              <mxPoint x="370" y="234.71" />
              <mxPoint x="360" y="234.71" />
            </Array>
          </mxGeometry>
        </mxCell>
        <mxCell id="LBWheHYTFPjmtkvQ77Nh-7" value="" style="rounded=0;orthogonalLoop=1;jettySize=auto;html=1;endArrow=oval;endFill=0;sketch=0;sourcePerimeterSpacing=0;targetPerimeterSpacing=0;endSize=10;exitX=1;exitY=0.5;exitDx=0;exitDy=0;" parent="1" edge="1">
          <mxGeometry relative="1" as="geometry">
            <mxPoint x="270" y="234.83" as="sourcePoint" />
            <mxPoint x="305" y="235" as="targetPoint" />
            <Array as="points" />
          </mxGeometry>
        </mxCell>
        <mxCell id="LBWheHYTFPjmtkvQ77Nh-9" value="&lt;b&gt;&lt;font style=&quot;font-size: 13px;&quot;&gt;FtpServer&lt;/font&gt;&lt;/b&gt;" style="text;html=1;align=center;verticalAlign=middle;whiteSpace=wrap;rounded=0;" parent="1" vertex="1">
          <mxGeometry x="235" y="160" width="60" height="30" as="geometry" />
        </mxCell>
        <mxCell id="LBWheHYTFPjmtkvQ77Nh-10" value="&lt;p style=&quot;margin:0px;margin-top:6px;text-align:center;&quot;&gt;&lt;br&gt;&lt;/p&gt;" style="align=left;overflow=fill;html=1;dropTarget=0;whiteSpace=wrap;fillColor=none;" parent="1" vertex="1">
          <mxGeometry x="340" y="180" width="150" height="170" as="geometry" />
        </mxCell>
        <mxCell id="LBWheHYTFPjmtkvQ77Nh-11" value="" style="shape=component;jettyWidth=8;jettyHeight=4;" parent="LBWheHYTFPjmtkvQ77Nh-10" vertex="1">
          <mxGeometry x="1" width="21" height="20" relative="1" as="geometry">
            <mxPoint x="-25" y="4" as="offset" />
          </mxGeometry>
        </mxCell>
        <mxCell id="LBWheHYTFPjmtkvQ77Nh-4" value="" style="html=1;dropTarget=0;whiteSpace=wrap;" parent="1" vertex="1">
          <mxGeometry x="355" y="210" width="120" height="50" as="geometry" />
        </mxCell>
        <mxCell id="LBWheHYTFPjmtkvQ77Nh-5" value="" style="shape=module;jettyWidth=8;jettyHeight=4;" parent="LBWheHYTFPjmtkvQ77Nh-4" vertex="1">
          <mxGeometry x="1" width="20" height="20" relative="1" as="geometry">
            <mxPoint x="-27" y="7" as="offset" />
          </mxGeometry>
        </mxCell>
        <mxCell id="LBWheHYTFPjmtkvQ77Nh-12" value="" style="html=1;dropTarget=0;whiteSpace=wrap;" parent="1" vertex="1">
          <mxGeometry x="355" y="290" width="120" height="50" as="geometry" />
        </mxCell>
        <mxCell id="LBWheHYTFPjmtkvQ77Nh-13" value="" style="shape=module;jettyWidth=8;jettyHeight=4;" parent="LBWheHYTFPjmtkvQ77Nh-12" vertex="1">
          <mxGeometry x="1" width="20" height="20" relative="1" as="geometry">
            <mxPoint x="-27" y="7" as="offset" />
          </mxGeometry>
        </mxCell>
        <mxCell id="LBWheHYTFPjmtkvQ77Nh-14" value="" style="html=1;dropTarget=0;whiteSpace=wrap;" parent="1" vertex="1">
          <mxGeometry x="155" y="210" width="120" height="50" as="geometry" />
        </mxCell>
        <mxCell id="LBWheHYTFPjmtkvQ77Nh-15" value="" style="shape=module;jettyWidth=8;jettyHeight=4;" parent="LBWheHYTFPjmtkvQ77Nh-14" vertex="1">
          <mxGeometry x="1" width="20" height="20" relative="1" as="geometry">
            <mxPoint x="-27" y="7" as="offset" />
          </mxGeometry>
        </mxCell>
        <mxCell id="LBWheHYTFPjmtkvQ77Nh-16" value="" style="html=1;dropTarget=0;whiteSpace=wrap;" parent="1" vertex="1">
          <mxGeometry x="210" y="290" width="120" height="50" as="geometry" />
        </mxCell>
        <mxCell id="LBWheHYTFPjmtkvQ77Nh-17" value="" style="shape=module;jettyWidth=8;jettyHeight=4;" parent="LBWheHYTFPjmtkvQ77Nh-16" vertex="1">
          <mxGeometry x="1" width="20" height="20" relative="1" as="geometry">
            <mxPoint x="-27" y="7" as="offset" />
          </mxGeometry>
        </mxCell>
        <mxCell id="LBWheHYTFPjmtkvQ77Nh-18" value="" style="html=1;dropTarget=0;whiteSpace=wrap;" parent="1" vertex="1">
          <mxGeometry x="35" y="290" width="120" height="50" as="geometry" />
        </mxCell>
        <mxCell id="LBWheHYTFPjmtkvQ77Nh-19" value="" style="shape=module;jettyWidth=8;jettyHeight=4;" parent="LBWheHYTFPjmtkvQ77Nh-18" vertex="1">
          <mxGeometry x="1" width="20" height="20" relative="1" as="geometry">
            <mxPoint x="-27" y="7" as="offset" />
          </mxGeometry>
        </mxCell>
        <mxCell id="LBWheHYTFPjmtkvQ77Nh-20" value="&lt;p style=&quot;margin:0px;margin-top:6px;text-align:center;&quot;&gt;&lt;br&gt;&lt;/p&gt;" style="align=left;overflow=fill;html=1;dropTarget=0;whiteSpace=wrap;fillColor=none;" parent="1" vertex="1">
          <mxGeometry x="560" y="270" width="180" height="90" as="geometry" />
        </mxCell>
        <mxCell id="LBWheHYTFPjmtkvQ77Nh-21" value="" style="shape=component;jettyWidth=8;jettyHeight=4;" parent="LBWheHYTFPjmtkvQ77Nh-20" vertex="1">
          <mxGeometry x="1" width="21" height="20" relative="1" as="geometry">
            <mxPoint x="-25" y="4" as="offset" />
          </mxGeometry>
        </mxCell>
        <mxCell id="LBWheHYTFPjmtkvQ77Nh-22" value="" style="html=1;dropTarget=0;whiteSpace=wrap;" parent="1" vertex="1">
          <mxGeometry x="610" y="300" width="120" height="50" as="geometry" />
        </mxCell>
        <mxCell id="LBWheHYTFPjmtkvQ77Nh-23" value="" style="shape=module;jettyWidth=8;jettyHeight=4;" parent="LBWheHYTFPjmtkvQ77Nh-22" vertex="1">
          <mxGeometry x="1" width="20" height="20" relative="1" as="geometry">
            <mxPoint x="-27" y="7" as="offset" />
          </mxGeometry>
        </mxCell>
        <mxCell id="LBWheHYTFPjmtkvQ77Nh-24" value="Database" style="text;html=1;align=center;verticalAlign=middle;whiteSpace=wrap;rounded=0;" parent="1" vertex="1">
          <mxGeometry x="60" y="300" width="60" height="30" as="geometry" />
        </mxCell>
        <mxCell id="LBWheHYTFPjmtkvQ77Nh-25" value="ServiceEngine" style="text;html=1;align=center;verticalAlign=middle;whiteSpace=wrap;rounded=0;" parent="1" vertex="1">
          <mxGeometry x="230" y="300" width="60" height="30" as="geometry" />
        </mxCell>
        <mxCell id="LBWheHYTFPjmtkvQ77Nh-26" value="FileResources" style="text;html=1;align=center;verticalAlign=middle;whiteSpace=wrap;rounded=0;" parent="1" vertex="1">
          <mxGeometry x="175" y="220" width="60" height="30" as="geometry" />
        </mxCell>
        <mxCell id="LBWheHYTFPjmtkvQ77Nh-27" value="FtpServerController" style="text;html=1;align=center;verticalAlign=middle;whiteSpace=wrap;rounded=0;" parent="1" vertex="1">
          <mxGeometry x="380" y="180" width="60" height="30" as="geometry" />
        </mxCell>
        <mxCell id="LBWheHYTFPjmtkvQ77Nh-28" value="ClientHandler" style="text;html=1;align=center;verticalAlign=middle;whiteSpace=wrap;rounded=0;" parent="1" vertex="1">
          <mxGeometry x="377" y="220" width="60" height="30" as="geometry" />
        </mxCell>
        <mxCell id="LBWheHYTFPjmtkvQ77Nh-29" value="AccessControl" style="text;html=1;align=center;verticalAlign=middle;whiteSpace=wrap;rounded=0;" parent="1" vertex="1">
          <mxGeometry x="377" y="300" width="60" height="30" as="geometry" />
        </mxCell>
        <mxCell id="LBWheHYTFPjmtkvQ77Nh-30" value="FtpClient" style="text;html=1;align=center;verticalAlign=middle;whiteSpace=wrap;rounded=0;" parent="1" vertex="1">
          <mxGeometry x="640" y="310" width="60" height="30" as="geometry" />
        </mxCell>
        <mxCell id="LBWheHYTFPjmtkvQ77Nh-31" value="&lt;b&gt;ClientNode&lt;/b&gt;" style="text;html=1;align=center;verticalAlign=middle;whiteSpace=wrap;rounded=0;" parent="1" vertex="1">
          <mxGeometry x="620" y="270" width="60" height="30" as="geometry" />
        </mxCell>
        <mxCell id="LBWheHYTFPjmtkvQ77Nh-33" value="" style="endArrow=circle;html=1;rounded=0;endFill=0;exitX=0;exitY=0.5;exitDx=0;exitDy=0;entryX=0.056;entryY=0.611;entryDx=0;entryDy=0;entryPerimeter=0;" parent="1" source="LBWheHYTFPjmtkvQ77Nh-22" target="LBWheHYTFPjmtkvQ77Nh-20" edge="1">
          <mxGeometry width="50" height="50" relative="1" as="geometry">
            <mxPoint x="540" y="440" as="sourcePoint" />
            <mxPoint x="590" y="390" as="targetPoint" />
          </mxGeometry>
        </mxCell>
        <mxCell id="LBWheHYTFPjmtkvQ77Nh-34" value="FTP" style="text;html=1;align=center;verticalAlign=middle;whiteSpace=wrap;rounded=0;" parent="1" vertex="1">
          <mxGeometry x="560" y="330" width="60" height="20" as="geometry" />
        </mxCell>
        <mxCell id="LBWheHYTFPjmtkvQ77Nh-35" value="" style="endArrow=classic;html=1;rounded=0;exitX=0.927;exitY=1;exitDx=0;exitDy=0;exitPerimeter=0;" parent="1" source="LBWheHYTFPjmtkvQ77Nh-4" edge="1">
          <mxGeometry width="50" height="50" relative="1" as="geometry">
            <mxPoint x="500" y="450" as="sourcePoint" />
            <mxPoint x="570" y="320" as="targetPoint" />
          </mxGeometry>
        </mxCell>
        <mxCell id="LBWheHYTFPjmtkvQ77Nh-36" value="" style="endArrow=classic;html=1;rounded=0;entryX=0.5;entryY=0;entryDx=0;entryDy=0;exitX=0.5;exitY=1;exitDx=0;exitDy=0;" parent="1" source="LBWheHYTFPjmtkvQ77Nh-4" target="LBWheHYTFPjmtkvQ77Nh-12" edge="1">
          <mxGeometry width="50" height="50" relative="1" as="geometry">
            <mxPoint x="320" y="470" as="sourcePoint" />
            <mxPoint x="370" y="420" as="targetPoint" />
          </mxGeometry>
        </mxCell>
        <mxCell id="LBWheHYTFPjmtkvQ77Nh-38" value="&lt;font style=&quot;font-size: 10px;&quot;&gt;IFileManager&lt;/font&gt;" style="text;html=1;align=center;verticalAlign=middle;whiteSpace=wrap;rounded=0;" parent="1" vertex="1">
          <mxGeometry x="277" y="240" width="60" height="20" as="geometry" />
        </mxCell>
        <mxCell id="LBWheHYTFPjmtkvQ77Nh-39" value="" style="endArrow=classic;html=1;rounded=0;exitX=0.75;exitY=0;exitDx=0;exitDy=0;entryX=-0.001;entryY=0.909;entryDx=0;entryDy=0;entryPerimeter=0;" parent="1" source="LBWheHYTFPjmtkvQ77Nh-16" target="LBWheHYTFPjmtkvQ77Nh-4" edge="1">
          <mxGeometry width="50" height="50" relative="1" as="geometry">
            <mxPoint x="310" y="330" as="sourcePoint" />
            <mxPoint x="350" y="250" as="targetPoint" />
          </mxGeometry>
        </mxCell>
        <mxCell id="LBWheHYTFPjmtkvQ77Nh-40" value="" style="rounded=0;orthogonalLoop=1;jettySize=auto;html=1;endArrow=oval;endFill=0;sketch=0;sourcePerimeterSpacing=0;targetPerimeterSpacing=0;endSize=10;exitX=1;exitY=0.5;exitDx=0;exitDy=0;" parent="1" source="LBWheHYTFPjmtkvQ77Nh-18" edge="1">
          <mxGeometry relative="1" as="geometry">
            <mxPoint x="160" y="314.83000000000004" as="sourcePoint" />
            <mxPoint x="180" y="315" as="targetPoint" />
            <Array as="points" />
          </mxGeometry>
        </mxCell>
        <mxCell id="LBWheHYTFPjmtkvQ77Nh-41" value="" style="rounded=0;orthogonalLoop=1;jettySize=auto;html=1;endArrow=halfCircle;endFill=0;endSize=6;strokeWidth=1;sketch=0;exitX=0;exitY=0.5;exitDx=0;exitDy=0;" parent="1" source="LBWheHYTFPjmtkvQ77Nh-16" edge="1">
          <mxGeometry relative="1" as="geometry">
            <mxPoint x="240" y="314.83000000000004" as="sourcePoint" />
            <mxPoint x="180" y="315" as="targetPoint" />
            <Array as="points" />
          </mxGeometry>
        </mxCell>
        <mxCell id="LBWheHYTFPjmtkvQ77Nh-42" value="&lt;font style=&quot;font-size: 10px;&quot;&gt;IRepository&lt;/font&gt;" style="text;html=1;align=center;verticalAlign=middle;whiteSpace=wrap;rounded=0;" parent="1" vertex="1">
          <mxGeometry x="158" y="330" width="50" height="10" as="geometry" />
        </mxCell>
      </root>
    </mxGraphModel>
  </diagram>
</mxfile>
